<svg width="25" height="25" viewBox="0 0 25 25" fill="none" xmlns="http://www.w3.org/2000/svg">
<g id="&#208;&#177;&#209;&#131;&#209;&#128;&#208;&#179;&#208;&#181;&#209;&#128;">
<g id="Category">
<g id="Vector">
<path d="M4.16699 7.29199C4.16699 6.32128 4.16699 5.83592 4.32558 5.45307C4.53702 4.94259 4.94259 4.53702 5.45307 4.32558C5.83592 4.16699 6.32128 4.16699 7.29199 4.16699C8.2627 4.16699 8.74806 4.16699 9.13092 4.32558C9.64139 4.53702 10.047 4.94259 10.2584 5.45307C10.417 5.83592 10.417 6.32128 10.417 7.29199C10.417 8.2627 10.417 8.74806 10.2584 9.13092C10.047 9.64139 9.64139 10.047 9.13092 10.2584C8.74806 10.417 8.2627 10.417 7.29199 10.417C6.32128 10.417 5.83592 10.417 5.45307 10.2584C4.94259 10.047 4.53702 9.64139 4.32558 9.13092C4.16699 8.74806 4.16699 8.2627 4.16699 7.29199Z" fill="#76E41F"/>
<path d="M14.5837 7.29199C14.5837 6.32128 14.5837 5.83592 14.7422 5.45307C14.9537 4.94259 15.3593 4.53702 15.8697 4.32558C16.2526 4.16699 16.7379 4.16699 17.7087 4.16699C18.6794 4.16699 19.1647 4.16699 19.5476 4.32558C20.0581 4.53702 20.4636 4.94259 20.6751 5.45307C20.8337 5.83592 20.8337 6.32128 20.8337 7.29199C20.8337 8.2627 20.8337 8.74806 20.6751 9.13092C20.4636 9.64139 20.0581 10.047 19.5476 10.2584C19.1647 10.417 18.6794 10.417 17.7087 10.417C16.7379 10.417 16.2526 10.417 15.8697 10.2584C15.3593 10.047 14.9537 9.64139 14.7422 9.13092C14.5837 8.74806 14.5837 8.2627 14.5837 7.29199Z" fill="#76E41F"/>
<path d="M4.16699 17.7087C4.16699 16.7379 4.16699 16.2526 4.32558 15.8697C4.53702 15.3593 4.94259 14.9537 5.45307 14.7422C5.83592 14.5837 6.32128 14.5837 7.29199 14.5837C8.2627 14.5837 8.74806 14.5837 9.13092 14.7422C9.64139 14.9537 10.047 15.3593 10.2584 15.8697C10.417 16.2526 10.417 16.7379 10.417 17.7087C10.417 18.6794 10.417 19.1647 10.2584 19.5476C10.047 20.0581 9.64139 20.4636 9.13092 20.6751C8.74806 20.8337 8.2627 20.8337 7.29199 20.8337C6.32128 20.8337 5.83592 20.8337 5.45307 20.6751C4.94259 20.4636 4.53702 20.0581 4.32558 19.5476C4.16699 19.1647 4.16699 18.6794 4.16699 17.7087Z" fill="#76E41F"/>
<path d="M14.5837 17.7087C14.5837 16.7379 14.5837 16.2526 14.7422 15.8697C14.9537 15.3593 15.3593 14.9537 15.8697 14.7422C16.2526 14.5837 16.7379 14.5837 17.7087 14.5837C18.6794 14.5837 19.1647 14.5837 19.5476 14.7422C20.0581 14.9537 20.4636 15.3593 20.6751 15.8697C20.8337 16.2526 20.8337 16.7379 20.8337 17.7087C20.8337 18.6794 20.8337 19.1647 20.6751 19.5476C20.4636 20.0581 20.0581 20.4636 19.5476 20.6751C19.1647 20.8337 18.6794 20.8337 17.7087 20.8337C16.7379 20.8337 16.2526 20.8337 15.8697 20.6751C15.3593 20.4636 14.9537 20.0581 14.7422 19.5476C14.5837 19.1647 14.5837 18.6794 14.5837 17.7087Z" fill="#76E41F"/>
</g>
</g>
</g>
</svg>
