<svg width="14" height="14" viewBox="0 0 14 14" fill="none" xmlns="http://www.w3.org/2000/svg">
<path fill-rule="evenodd" clip-rule="evenodd" d="M5.55381 5.29506H7.64294V6.33569C7.94387 5.73719 8.71562 5.19944 9.87494 5.19944C12.0974 5.19944 12.625 6.39081 12.625 8.57669V12.625H10.375V9.0745C10.375 7.82969 10.0741 7.12769 9.30794 7.12769C8.24538 7.12769 7.80381 7.88425 7.80381 9.07394V12.625H5.55381V5.29506ZM1.69562 12.5294H3.94563V5.19944H1.69562V12.5294ZM4.26794 2.80938C4.26802 2.99797 4.23062 3.18469 4.15791 3.35871C4.08519 3.53272 3.97862 3.69054 3.84437 3.823C3.57235 4.09335 3.20414 4.24468 2.82063 4.24375C2.43778 4.24349 2.07042 4.09255 1.798 3.82356C1.66424 3.69065 1.55803 3.53265 1.48544 3.35862C1.41286 3.18458 1.37533 2.99794 1.375 2.80938C1.375 2.42856 1.52688 2.06406 1.79856 1.79519C2.07075 1.52584 2.43826 1.37483 2.82119 1.375C3.20481 1.375 3.57269 1.52631 3.84437 1.79519C4.1155 2.06406 4.26794 2.42856 4.26794 2.80938Z" fill="white"/>
</svg>
