<svg width="16" height="16" viewBox="0 0 16 16" fill="none" xmlns="http://www.w3.org/2000/svg">
<path d="M5.12031 9.26255C5.83828 9.26255 6.42031 8.69731 6.42031 8.00005C6.42031 7.30279 5.83828 6.73755 5.12031 6.73755C4.40234 6.73755 3.82031 7.30279 3.82031 8.00005C3.82031 8.69731 4.40234 9.26255 5.12031 9.26255Z" stroke="white" stroke-width="1.5" stroke-linecap="round" stroke-linejoin="round"/>
<path d="M11.4207 4.87503C12.118 4.87503 12.6832 4.30979 12.6832 3.61253C12.6832 2.91527 12.118 2.35004 11.4207 2.35004C10.7234 2.35004 10.1582 2.91527 10.1582 3.61253C10.1582 4.30979 10.7234 4.87503 11.4207 4.87503Z" stroke="white" stroke-width="1.5" stroke-linecap="round" stroke-linejoin="round"/>
<path d="M11.4207 13.65C12.118 13.65 12.6832 13.0848 12.6832 12.3875C12.6832 11.6902 12.118 11.125 11.4207 11.125C10.7234 11.125 10.1582 11.6902 10.1582 12.3875C10.1582 13.0848 10.7234 13.65 11.4207 13.65Z" stroke="white" stroke-width="1.5" stroke-linecap="round" stroke-linejoin="round"/>
<path d="M6.52148 7.02503L10.0215 4.58752" stroke="white" stroke-width="1.5" stroke-linecap="round" stroke-linejoin="round"/>
<path d="M10.0215 11.4125L6.52148 8.97504" stroke="white" stroke-width="1.5" stroke-linecap="round" stroke-linejoin="round"/>
</svg>
