<svg width="16" height="16" viewBox="0 0 16 16" fill="none" xmlns="http://www.w3.org/2000/svg">
<path d="M13.5918 5.6906C13.5855 5.21724 13.4969 4.74858 13.3299 4.3056C13.1851 3.93194 12.964 3.5926 12.6807 3.30924C12.3973 3.02589 12.058 2.80475 11.6843 2.65997C11.247 2.49582 10.785 2.40706 10.318 2.39747C9.7168 2.3706 9.52617 2.3631 7.99992 2.3631C6.47367 2.3631 6.27805 2.3631 5.68117 2.39747C5.2144 2.40713 4.75264 2.49589 4.31555 2.65997C3.94183 2.80465 3.60244 3.02575 3.31907 3.30912C3.0357 3.59249 2.8146 3.93188 2.66992 4.3056C2.50544 4.74256 2.41687 5.20442 2.40805 5.67122C2.38117 6.2731 2.37305 6.46372 2.37305 7.98997C2.37305 9.51622 2.37305 9.71122 2.40805 10.3087C2.41742 10.7762 2.50555 11.2375 2.66992 11.6756C2.81485 12.0492 3.03611 12.3885 3.31957 12.6717C3.60303 12.955 3.94246 13.176 4.31617 13.3206C4.75207 13.4913 5.2139 13.5865 5.6818 13.6018C6.28367 13.6287 6.4743 13.6368 8.00055 13.6368C9.5268 13.6368 9.72242 13.6368 10.3193 13.6018C10.7863 13.5927 11.2483 13.5041 11.6855 13.34C12.0591 13.195 12.3984 12.9738 12.6817 12.6905C12.965 12.4072 13.1862 12.0679 13.3312 11.6943C13.4955 11.2568 13.5837 10.7956 13.593 10.3275C13.6199 9.72622 13.628 9.5356 13.628 8.00872C13.6268 6.48247 13.6268 6.28872 13.5918 5.6906ZM7.99617 10.8762C6.39992 10.8762 5.1068 9.5831 5.1068 7.98685C5.1068 6.3906 6.39992 5.09747 7.99617 5.09747C8.76248 5.09747 9.49741 5.40189 10.0393 5.94375C10.5811 6.48561 10.8855 7.22054 10.8855 7.98685C10.8855 8.75316 10.5811 9.48808 10.0393 10.0299C9.49741 10.5718 8.76248 10.8762 7.99617 10.8762ZM11.0005 5.66435C10.912 5.66443 10.8244 5.64706 10.7426 5.61323C10.6608 5.5794 10.5865 5.52977 10.524 5.46719C10.4614 5.40461 10.4117 5.33031 10.3779 5.24853C10.3441 5.16675 10.3267 5.0791 10.3268 4.9906C10.3268 4.90216 10.3442 4.81459 10.3781 4.73288C10.4119 4.65118 10.4615 4.57694 10.524 4.51441C10.5866 4.45187 10.6608 4.40227 10.7425 4.36842C10.8242 4.33458 10.9118 4.31716 11.0002 4.31716C11.0887 4.31716 11.1762 4.33458 11.2579 4.36842C11.3397 4.40227 11.4139 4.45187 11.4764 4.51441C11.539 4.57694 11.5886 4.65118 11.6224 4.73288C11.6563 4.81459 11.6737 4.90216 11.6737 4.9906C11.6737 5.3631 11.3724 5.66435 11.0005 5.66435Z" fill="white"/>
<path d="M7.99602 9.86374C9.03259 9.86374 9.87289 9.02343 9.87289 7.98686C9.87289 6.95029 9.03259 6.10999 7.99602 6.10999C6.95945 6.10999 6.11914 6.95029 6.11914 7.98686C6.11914 9.02343 6.95945 9.86374 7.99602 9.86374Z" fill="white"/>
</svg>
