<svg width="164" height="39" viewBox="0 0 164 39" fill="none" xmlns="http://www.w3.org/2000/svg">
<path d="M162.827 11.8442C162.934 12.9754 162.521 14.1565 161.579 15.3803C160.637 16.6058 159.178 17.8547 157.241 19.1061C153.366 21.6083 147.631 24.0846 140.446 26.3931C126.083 31.0086 105.991 34.9333 83.5796 37.0682C61.1678 39.203 40.6969 39.1419 25.7202 37.3213C18.2293 36.4106 12.1294 35.0617 7.85195 33.336C5.71285 32.473 4.04504 31.5219 2.88792 30.4964C1.73234 29.4723 1.10337 28.3905 0.995615 27.2593C0.887865 26.1281 1.30129 24.947 2.24274 23.7231C3.18544 22.4976 4.64369 21.2487 6.58139 19.9974C10.4561 17.4952 16.1916 15.0189 23.3759 12.7104C37.7396 8.09491 57.8308 4.17012 80.2426 2.0353C102.654 -0.0995261 123.125 -0.0384612 138.102 1.78219C145.593 2.69281 151.693 4.04175 155.97 5.76743C158.109 6.63043 159.777 7.58157 160.934 8.60705C162.09 9.63116 162.719 10.713 162.827 11.8442Z" stroke="#76E41F" stroke-width="0.6"/>
</svg>
