<svg width="16" height="16" viewBox="0 0 16 16" fill="none" xmlns="http://www.w3.org/2000/svg">
<g clip-path="url(#clip0_128_284)">
<path d="M15.4554 4.92104C15.447 4.28989 15.3288 3.66502 15.1062 3.07437C14.9132 2.57617 14.6184 2.12371 14.2405 1.7459C13.8627 1.36809 13.4103 1.07325 12.9121 0.880208C12.329 0.661339 11.7131 0.542993 11.0904 0.530208C10.2887 0.494375 10.0346 0.484375 7.99957 0.484375C5.96457 0.484375 5.70374 0.484375 4.9079 0.530208C4.28554 0.543087 3.66986 0.661432 3.08707 0.880208C2.58879 1.07312 2.13625 1.36791 1.75843 1.74574C1.38061 2.12356 1.08581 2.57609 0.892904 3.07437C0.673596 3.65699 0.555506 4.2728 0.543737 4.89521C0.507904 5.69771 0.49707 5.95187 0.49707 7.98687C0.49707 10.0219 0.49707 10.2819 0.543737 11.0785C0.556237 11.7019 0.673737 12.3169 0.892904 12.901C1.08613 13.3992 1.38115 13.8515 1.7591 14.2292C2.13705 14.6068 2.58962 14.9015 3.0879 15.0944C3.6691 15.322 4.28488 15.4489 4.90874 15.4694C5.71124 15.5052 5.9654 15.516 8.0004 15.516C10.0354 15.516 10.2962 15.516 11.0921 15.4694C11.7147 15.4571 12.3307 15.339 12.9137 15.1202C13.4118 14.9269 13.8642 14.632 14.2419 14.2542C14.6197 13.8765 14.9146 13.4241 15.1079 12.926C15.3271 12.3427 15.4446 11.7277 15.4571 11.1035C15.4929 10.3019 15.5037 10.0477 15.5037 8.01187C15.5021 5.97687 15.5021 5.71854 15.4554 4.92104ZM7.99457 11.8352C5.86624 11.8352 4.14207 10.111 4.14207 7.98271C4.14207 5.85437 5.86624 4.13021 7.99457 4.13021C9.01632 4.13021 9.99621 4.5361 10.7187 5.25858C11.4412 5.98106 11.8471 6.96096 11.8471 7.98271C11.8471 9.00445 11.4412 9.98435 10.7187 10.7068C9.99621 11.4293 9.01632 11.8352 7.99457 11.8352ZM12.0004 4.88604C11.8824 4.88615 11.7655 4.86299 11.6565 4.81788C11.5475 4.77278 11.4484 4.70661 11.3649 4.62317C11.2815 4.53973 11.2153 4.44066 11.1702 4.33161C11.1251 4.22257 11.102 4.10571 11.1021 3.98771C11.1021 3.86979 11.1253 3.75303 11.1704 3.64409C11.2155 3.53515 11.2817 3.43616 11.3651 3.35279C11.4484 3.26941 11.5474 3.20327 11.6564 3.15814C11.7653 3.11302 11.8821 3.08979 12 3.08979C12.1179 3.08979 12.2347 3.11302 12.3436 3.15814C12.4525 3.20327 12.5515 3.26941 12.6349 3.35279C12.7183 3.43616 12.7844 3.53515 12.8296 3.64409C12.8747 3.75303 12.8979 3.86979 12.8979 3.98771C12.8979 4.48437 12.4962 4.88604 12.0004 4.88604Z" fill="black"/>
<path d="M7.99469 10.485C9.37678 10.485 10.4972 9.36457 10.4972 7.98248C10.4972 6.60039 9.37678 5.47998 7.99469 5.47998C6.6126 5.47998 5.49219 6.60039 5.49219 7.98248C5.49219 9.36457 6.6126 10.485 7.99469 10.485Z" fill="black"/>
</g>
<defs>
<clipPath id="clip0_128_284">
<rect width="16" height="16" fill="white"/>
</clipPath>
</defs>
</svg>
