<svg width="130" height="35" viewBox="0 0 130 35" fill="none" xmlns="http://www.w3.org/2000/svg">
<g clip-path="url(#clip0_1502_167)">
<path fill-rule="evenodd" clip-rule="evenodd" d="M8.99953 16.36C5.39953 16.36 2.51953 15.664 2.51953 13.12V3.04004H4.67953V13.12C4.67953 14.944 6.11953 15.64 8.99953 15.64H13.3195C16.1995 15.64 17.6395 14.944 17.6395 13.12V3.04004H19.7995V13.12C19.7995 15.664 16.9195 16.36 13.3195 16.36H8.99953ZM27.352 16H25.192V3.04004H27.352V16ZM27.352 3.04004H29.512L32.752 12.76C33.472 14.92 34.552 15.28 35.992 15.28H40.312V3.04004H42.472V16H35.992C33.112 16 31.312 14.92 30.592 12.76L27.352 3.04004ZM62.9911 16H46.4311V15.28H53.6311V3.76004H46.4311V3.04004H62.9911V3.76004H55.7911V15.28H62.9911V16ZM68.5177 13.12L65.1577 3.04004H67.3177L70.6777 13.12C71.3977 15.28 71.7577 15.64 72.2377 15.64C72.7177 15.64 73.0777 15.28 73.7977 13.12L71.6377 6.64004H73.7977L75.9577 13.12C75.2377 15.28 73.7977 16.36 72.2377 16.36C70.6777 16.36 69.2377 15.28 68.5177 13.12ZM75.9577 13.12L78.1177 6.64004H80.2777L78.1177 13.12C78.8377 15.28 79.1977 15.64 79.6777 15.64C80.1577 15.64 80.5177 15.28 81.2377 13.12L84.5977 3.04004H86.7577L83.3977 13.12C82.6777 15.28 81.2377 16.36 79.6777 16.36C78.1177 16.36 76.6777 15.28 75.9577 13.12ZM106.563 16H90.7233V3.04004H106.563V3.76004H92.8833V8.80004H99.3633V10.24H92.8833V15.28H106.563V16ZM121.328 16H110.528V3.04004H120.968C124.568 3.04004 127.448 3.76004 127.448 6.28004C127.448 8.80004 124.568 9.52004 120.968 9.52004H121.328C124.928 9.52004 127.808 10.24 127.808 12.76C127.808 15.28 124.928 16 121.328 16ZM112.688 3.76004V8.80004H120.968C123.848 8.80004 125.288 8.08004 125.288 6.28004C125.288 4.48004 123.848 3.76004 120.968 3.76004H112.688ZM112.688 10.24V15.28H121.328C124.208 15.28 125.648 14.56 125.648 12.76C125.648 10.96 124.208 10.24 121.328 10.24H112.688ZM3.56553 33H2.52153L4.14553 28.128C4.49353 27.084 5.36353 26.562 6.75553 26.562H7.68353C9.07553 26.562 9.94553 27.084 10.2935 28.128L11.9175 33H10.8735L9.94553 30.216H4.49353L3.56553 33ZM5.18953 28.128L4.72553 29.52H9.71353L9.24953 28.128C8.90153 27.084 8.37953 26.91 7.68353 26.91H6.75553C6.05953 26.91 5.53753 27.084 5.18953 28.128ZM16.6228 33C14.8828 33 13.4908 32.6636 13.4908 31.434V28.302C13.4908 27.0724 14.8828 26.736 16.6228 26.736H21.8428V27.084H16.6228C15.2308 27.084 14.5348 27.4204 14.5348 28.302V31.434C14.5348 32.3156 15.2308 32.652 16.6228 32.652H20.7988V30.216H17.6668V29.52H21.8428V33H16.6228ZM32.0499 33H24.3939V26.736H32.0499V27.084H25.4379V29.52H28.5699V30.216H25.4379V32.652H32.0499V33ZM35.0101 33H33.9661V26.736H35.0101V33ZM35.0101 26.736H36.0541L37.6201 31.434C37.9681 32.478 38.4901 32.652 39.1861 32.652H41.2741V26.736H42.3181V33H39.1861C37.7941 33 36.9241 32.478 36.5761 31.434L35.0101 26.736ZM48.0017 33C46.2617 33 44.8697 32.652 44.8697 31.434V28.302C44.8697 27.084 46.2617 26.736 48.0017 26.736H52.8737V27.084H48.0017C46.6097 27.084 45.9137 27.432 45.9137 28.302V31.434C45.9137 32.304 46.6097 32.652 48.0017 32.652H52.8737V33H48.0017ZM54.4392 28.302L53.9172 26.736H54.9612L55.4832 28.302C55.8312 29.346 56.3532 29.52 57.0492 29.52H59.4852C60.1812 29.52 60.7032 29.346 61.0512 28.302L61.5732 26.736H62.6172L62.0952 28.302C61.7472 29.346 60.8772 29.868 59.4852 29.868H58.7892V33H57.7452V29.868H57.0492C55.6572 29.868 54.7872 29.346 54.4392 28.302Z" fill="white"/>
</g>
<defs>
<clipPath id="clip0_1502_167">
<rect width="130" height="35" fill="white"/>
</clipPath>
</defs>
</svg>
